<svg xmlns="http://www.w3.org/2000/svg" xmlns:xlink="http://www.w3.org/1999/xlink" contentStyleType="text/css" data-diagram-type="DESCRIPTION" height="910px" preserveAspectRatio="none" style="width:1315px;height:910px;background:#FFFFFF;" version="1.1" viewBox="0 0 1315 910" width="1315px" zoomAndPan="magnify"><defs/><g><!--cluster intranet--><g class="cluster" data-entity="intranet" data-source-line="36" data-uid="ent0002" id="cluster_intranet"><rect fill="none" height="582.19" rx="2.5" ry="2.5" style="stroke:#181818;stroke-width:1;" width="1286" x="7" y="7"/><text fill="#000000" font-family="sans-serif" font-size="14" font-weight="bold" lengthAdjust="spacing" textLength="64.374" x="617.813" y="21.9951">Intranet</text></g><!--cluster k8s--><g class="cluster" data-entity="k8s" data-source-line="39" data-uid="ent0004" id="cluster_k8s"><rect fill="none" height="395.89" rx="2.5" ry="2.5" style="stroke:#181818;stroke-width:1;" width="1214" x="39" y="161.3"/><text fill="#000000" font-family="sans-serif" font-size="14" font-weight="bold" lengthAdjust="spacing" textLength="27.3848" x="632.3076" y="176.2951">k8s</text></g><!--cluster cert_estuary_ns--><g class="cluster" data-entity="cert_estuary_ns" data-source-line="40" data-uid="ent0005" id="cluster_cert_estuary_ns"><path d="M65.5,204.3 L198.9668,204.3 A3.75,3.75 0 0 1 201.4668,206.8 L208.4668,226.5969 L574.5,226.5969 A2.5,2.5 0 0 1 577,229.0969 L577,527.19 A2.5,2.5 0 0 1 574.5,529.69 L65.5,529.69 A2.5,2.5 0 0 1 63,527.19 L63,206.8 A2.5,2.5 0 0 1 65.5,204.3" fill="none" style="stroke:#000000;stroke-width:1.5;"/><line style="stroke:#000000;stroke-width:1.5;" x1="63" x2="208.4668" y1="226.5969" y2="226.5969"/><text fill="#000000" font-family="sans-serif" font-size="14" font-weight="bold" lengthAdjust="spacing" textLength="132.4668" x="67" y="219.2951">app-cert-estuary</text></g><!--cluster cert_manager_ns--><g class="cluster" data-entity="cert_manager_ns" data-source-line="46" data-uid="ent0010" id="cluster_cert_manager_ns"><path d="M766.5,435.89 L909.8721,435.89 A3.75,3.75 0 0 1 912.3721,438.39 L919.3721,458.1869 L929.5,458.1869 A2.5,2.5 0 0 1 932,460.6869 L932,530.69 A2.5,2.5 0 0 1 929.5,533.19 L766.5,533.19 A2.5,2.5 0 0 1 764,530.69 L764,438.39 A2.5,2.5 0 0 1 766.5,435.89" fill="none" style="stroke:#000000;stroke-width:1.5;"/><line style="stroke:#000000;stroke-width:1.5;" x1="764" x2="919.3721" y1="458.1869" y2="458.1869"/><text fill="#000000" font-family="sans-serif" font-size="14" font-weight="bold" lengthAdjust="spacing" textLength="142.3721" x="768" y="450.8851">app-cert-manager</text></g><!--cluster issuers_ns--><g class="cluster" data-entity="issuers_ns" data-source-line="49" data-uid="ent0012" id="cluster_issuers_ns"><path d="M1020.5,439.39 L1112.9648,439.39 A3.75,3.75 0 0 1 1115.4648,441.89 L1122.4648,461.6869 L1226.5,461.6869 A2.5,2.5 0 0 1 1229,464.1869 L1229,527.19 A2.5,2.5 0 0 1 1226.5,529.69 L1020.5,529.69 A2.5,2.5 0 0 1 1018,527.19 L1018,441.89 A2.5,2.5 0 0 1 1020.5,439.39" fill="none" style="stroke:#000000;stroke-width:1.5;"/><line style="stroke:#000000;stroke-width:1.5;" x1="1018" x2="1122.4648" y1="461.6869" y2="461.6869"/><text fill="#000000" font-family="sans-serif" font-size="14" font-weight="bold" lengthAdjust="spacing" textLength="91.4648" x="1022" y="454.3851">app-issuers</text></g><!--cluster extranet_cloud--><g class="cluster" data-entity="extranet_cloud" data-source-line="56" data-uid="ent0015" id="cluster_extranet_cloud"><path d="M973.9399,663.3623 C977.1356,656.5444 982.5638,654.3715 987.7911,661.3178 C992.7838,653.7196 999.1956,653.7034 1003.1433,662.308 C1006.3633,654.5207 1013.2041,654.0075 1017.6186,661.1499 C1020.4383,652.7117 1027.9954,652.2546 1033.1569,658.7063 C1037.6611,649.8242 1043.9106,650.5157 1049.6401,657.4275 C1054.5678,650.3599 1061.0716,650.4548 1064.9635,658.4792 C1068.6102,650.7589 1075.7868,650.3553 1080.0133,657.908 C1084.4433,651.9656 1090.9956,651.9889 1093.6038,659.7189 C1098.7578,652.518 1104.6542,650.5266 1110.1186,659.4 C1115.6458,653.7898 1121.388,655.4356 1124.03,662.5533 C1130.1099,653.7421 1136.2193,654.2744 1140.9285,663.8154 C1148.9755,656.3591 1158.2832,656.7406 1161,669.19 C1161.9781,668.2021 1162.5859,668.5992 1163.1616,669.6224 C1171.726,673.9852 1171.1792,680.208 1163.6523,685.0816 C1171.9491,687.4163 1173.1197,693.3094 1166.858,698.9977 C1173.411,703.8962 1174.6877,709.5823 1166.3556,713.9818 C1175.4885,716.2477 1175.3215,724.3245 1169.8795,729.831 C1177.1912,734.5311 1176.0965,738.9972 1170.3094,744.0922 C1177.3202,748.1354 1179.1265,754.5301 1172.0154,760.0803 C1180.3735,764.8986 1180.9609,770.2575 1172.7403,775.8385 C1179.1505,780.1253 1179.1112,784.2799 1172.7342,788.5607 C1177.9537,795.2401 1178.3315,800.1051 1169.3571,803.5965 C1177.8954,809.8139 1176.8898,816.4687 1167.2052,820.3448 C1173.1889,824.9537 1173.5647,829.1615 1167.9106,834.3564 C1173.546,840.5483 1173.256,845.2637 1165.9191,849.7806 C1172.5828,853.6034 1171.1019,859.8647 1164.8018,862.5534 C1172.6664,873.7703 1168.0433,883.7116 1154,883.78 C1154.9229,883.0938 1155.5535,883.3026 1155.9395,884.3729 C1152.233,893.9282 1147.2928,894.3855 1140.0252,887.9076 C1135.3445,896.0821 1128.7095,895.8671 1123.7553,888.1882 C1120.3466,895.9936 1115.699,898.0871 1108.5826,892.3388 C1104.0855,899.236 1099.01,899.7041 1093.1017,894.084 C1089.3883,901.299 1083.9933,900.7667 1079.8493,894.5075 C1076.4673,903.7579 1069.1635,903.778 1062.8334,897.8022 C1056.4981,901.8632 1052.0958,901.0923 1049.213,893.6973 C1044.1616,901.9163 1036.8164,900.4246 1032.8223,892.6161 C1027.5574,899.7733 1021.0118,899.7223 1017.5874,890.8651 C1012.8982,898.4458 1006.6428,897.7135 1002.7642,890.0755 C997.0432,896.0809 991.1841,896.4395 986.7468,888.5913 C974.2837,896.066 965.814,889.8138 964,876.78 C964.5722,876.6362 964.9956,876.8777 964.8499,877.5384 C958.4097,873.0131 957.9357,866.8657 964.3193,861.9053 C955.8987,855.2475 957.4525,849.7106 965.5941,844.2485 C956.0205,839.1268 955.4325,833.2512 962.7807,825.5795 C956.8085,820.7086 956.7018,814.5973 963.4228,810.2583 C953.4649,805.2784 952.7727,798.9991 961.5443,792.0833 C951.757,785.7603 954.2248,780.0211 961.8317,773.9742 C954.1906,769.5587 955.1661,761.8918 962.0874,757.7051 C953.6635,751.6042 954.3587,746.3877 962.6356,740.8294 C953.5517,733.6512 954.7089,727.2127 965.1379,722.7326 C955.9272,718.4161 954.8772,711.0325 963.5646,705.1174 C957.2687,699.2087 956.2422,693.6294 964.6623,688.705 C954.3935,678.5703 956.7054,666.4535 971,662.19 C972.4476,661.2289 973.5178,661.7514 973.9399,663.3623" fill="none" style="stroke:#14973B;stroke-width:1;"/><text fill="#000000" font-family="sans-serif" font-size="14" font-weight="bold" lengthAdjust="spacing" textLength="67.792" x="1028.604" y="680.1851">Extranet</text></g><!--entity est_client--><g class="entity" data-entity="est_client" data-source-line="37" data-uid="ent0003" id="entity_est_client"><ellipse cx="303.0038" cy="66" fill="#F1F1F1" rx="12" ry="12" style="stroke:#181818;stroke-width:0.5;"/><line style="stroke:#181818;stroke-width:0.5;" x1="291.0038" x2="315.0038" y1="80" y2="80"/><text fill="#000000" font-family="sans-serif" font-size="14" lengthAdjust="spacing" textLength="88.8877" x="258.56" y="94.9951">client device</text></g><!--entity netpol--><g class="entity" data-entity="netpol" data-source-line="41" data-uid="ent0006" id="entity_netpol"><path d="M373.44,239.3 L486.5601,239.3 C491.5601,239.3 491.5601,252.4484 491.5601,252.4484 C491.5601,252.4484 491.5601,265.5969 486.5601,265.5969 L373.44,265.5969 C368.44,265.5969 368.44,252.4484 368.44,252.4484 C368.44,252.4484 368.44,239.3 373.44,239.3" fill="#F1F1F1" style="stroke:#EB6EA5;stroke-width:0.5;"/><path d="M486.5601,239.3 C481.5601,239.3 481.5601,252.4484 481.5601,252.4484 C481.5601,265.5969 486.5601,265.5969 486.5601,265.5969" fill="none" style="stroke:#EB6EA5;stroke-width:0.5;"/><text fill="#000000" font-family="sans-serif" font-size="14" lengthAdjust="spacing" textLength="103.1201" x="373.44" y="257.2951">network-policy</text></g><!--entity cert_estuary--><g class="entity" data-entity="cert_estuary" data-source-line="42" data-uid="ent0007" id="entity_cert_estuary"><rect fill="none" height="46.2969" rx="2.5" ry="2.5" style="stroke:#0075C2;stroke-width:0.5;" width="125.4971" x="232.25" y="326.59"/><rect fill="none" height="10" style="stroke:#0075C2;stroke-width:0.5;" width="15" x="337.7471" y="331.59"/><rect fill="none" height="2" style="stroke:#0075C2;stroke-width:0.5;" width="4" x="335.7471" y="333.59"/><rect fill="none" height="2" style="stroke:#0075C2;stroke-width:0.5;" width="4" x="335.7471" y="337.59"/><text fill="#000000" font-family="sans-serif" font-size="14" lengthAdjust="spacing" textLength="85.4971" x="247.25" y="359.5851">cert-estuary</text></g><!--entity csr--><g class="entity" data-entity="csr" data-source-line="43" data-uid="ent0008" id="entity_csr"><rect fill="#64BDD4" height="39.2969" rx="2.5" ry="2.5" style="stroke:#181818;stroke-width:0.5;" width="212.4033" x="348.8" y="474.39"/><polygon fill="#64BDD4" points="544.2033,479.39,544.2033,493.39,556.2033,493.39,556.2033,485.39,550.2033,479.39,544.2033,479.39" style="stroke:#181818;stroke-width:0.5;"/><line style="stroke:#181818;stroke-width:0.5;" x1="550.2033" x2="550.2033" y1="479.39" y2="485.39"/><line style="stroke:#181818;stroke-width:0.5;" x1="556.2033" x2="550.2033" y1="485.39" y2="485.39"/><text fill="#000000" font-family="sans-serif" font-size="14" lengthAdjust="spacing" textLength="182.4033" x="358.8" y="500.3851">CertificateSigningRequest</text></g><!--entity eac--><g class="entity" data-entity="eac" data-source-line="44" data-uid="ent0009" id="entity_eac"><rect fill="#64BDD4" height="39.2969" rx="2.5" ry="2.5" style="stroke:#181818;stroke-width:0.5;" width="172.6865" x="78.66" y="474.39"/><polygon fill="#64BDD4" points="234.3465,479.39,234.3465,493.39,246.3465,493.39,246.3465,485.39,240.3465,479.39,234.3465,479.39" style="stroke:#181818;stroke-width:0.5;"/><line style="stroke:#181818;stroke-width:0.5;" x1="240.3465" x2="240.3465" y1="479.39" y2="485.39"/><line style="stroke:#181818;stroke-width:0.5;" x1="246.3465" x2="240.3465" y1="485.39" y2="485.39"/><text fill="#000000" font-family="sans-serif" font-size="14" lengthAdjust="spacing" textLength="142.6865" x="88.66" y="500.3851">ESTAuthorizedClient</text></g><!--entity cert_manager--><g class="entity" data-entity="cert_manager" data-source-line="47" data-uid="ent0011" id="entity_cert_manager"><rect fill="none" height="46.2969" rx="2.5" ry="2.5" style="stroke:#0075C2;stroke-width:0.5;" width="135.5322" x="780.23" y="470.89"/><rect fill="none" height="10" style="stroke:#0075C2;stroke-width:0.5;" width="15" x="895.7622" y="475.89"/><rect fill="none" height="2" style="stroke:#0075C2;stroke-width:0.5;" width="4" x="893.7622" y="477.89"/><rect fill="none" height="2" style="stroke:#0075C2;stroke-width:0.5;" width="4" x="893.7622" y="481.89"/><text fill="#000000" font-family="sans-serif" font-size="14" lengthAdjust="spacing" textLength="95.5322" x="795.23" y="503.8851">cert-manager</text></g><!--entity issuer--><g class="entity" data-entity="issuer" data-source-line="50" data-uid="ent0013" id="entity_issuer"><rect fill="#64BDD4" height="39.2969" rx="2.5" ry="2.5" style="stroke:#181818;stroke-width:0.5;" width="71.959" x="1034.02" y="474.39"/><polygon fill="#64BDD4" points="1088.979,479.39,1088.979,493.39,1100.979,493.39,1100.979,485.39,1094.979,479.39,1088.979,479.39" style="stroke:#181818;stroke-width:0.5;"/><line style="stroke:#181818;stroke-width:0.5;" x1="1094.979" x2="1094.979" y1="479.39" y2="485.39"/><line style="stroke:#181818;stroke-width:0.5;" x1="1100.979" x2="1094.979" y1="485.39" y2="485.39"/><text fill="#000000" font-family="sans-serif" font-size="14" lengthAdjust="spacing" textLength="41.959" x="1044.02" y="500.3851">Issuer</text></g><!--entity dns_token--><g class="entity" data-entity="dns_token" data-source-line="51" data-uid="ent0014" id="entity_dns_token"><path d="M1140.75,478.39 L1140.75,509.6869 A2.5,2.5 0 0 0 1143.25,512.1869 L1210.75,512.1869 A2.5,2.5 0 0 0 1213.25,509.6869 L1213.25,485.89 L1203.25,475.89 L1143.25,475.89 A2.5,2.5 0 0 0 1140.75,478.39" fill="#EB6EA5" style="stroke:#181818;stroke-width:0.5;"/><path d="M1203.25,475.89 L1203.25,483.39 A2.5,2.5 0 0 0 1205.75,485.89 L1213.25,485.89" fill="#EB6EA5" style="stroke:#181818;stroke-width:0.5;"/><text fill="#000000" font-family="sans-serif" font-size="14" lengthAdjust="spacing" textLength="52.5" x="1150.75" y="498.8851">token &#128273;</text></g><!--entity main_dns--><g class="entity" data-entity="main_dns" data-source-line="57" data-uid="ent0016" id="entity_main_dns"><path d="M989.93,708.69 C989.93,698.69 1014.9998,698.69 1014.9998,698.69 C1014.9998,698.69 1040.0696,698.69 1040.0696,708.69 L1040.0696,733.9869 C1040.0696,743.9869 1014.9998,743.9869 1014.9998,743.9869 C1014.9998,743.9869 989.93,743.9869 989.93,733.9869 L989.93,708.69" fill="#F1F1F1" style="stroke:#181818;stroke-width:0.5;"/><path d="M989.93,708.69 C989.93,718.69 1014.9998,718.69 1014.9998,718.69 C1014.9998,718.69 1040.0696,718.69 1040.0696,708.69" fill="none" style="stroke:#181818;stroke-width:0.5;"/><text fill="#000000" font-family="sans-serif" font-size="14" lengthAdjust="spacing" textLength="30.1396" x="999.93" y="735.6851">DNS</text></g><!--entity sub_dns--><g class="entity" data-entity="sub_dns" data-source-line="58" data-uid="ent0017" id="entity_sub_dns"><path d="M980.1,832.48 C980.1,822.48 1032.9955,822.48 1032.9955,822.48 C1032.9955,822.48 1085.891,822.48 1085.891,832.48 L1085.891,857.7769 C1085.891,867.7769 1032.9955,867.7769 1032.9955,867.7769 C1032.9955,867.7769 980.1,867.7769 980.1,857.7769 L980.1,832.48" fill="#F1F1F1" style="stroke:#181818;stroke-width:0.5;"/><path d="M980.1,832.48 C980.1,842.48 1032.9955,842.48 1032.9955,842.48 C1032.9955,842.48 1085.891,842.48 1085.891,832.48" fill="none" style="stroke:#181818;stroke-width:0.5;"/><text fill="#000000" font-family="sans-serif" font-size="14" lengthAdjust="spacing" textLength="85.791" x="990.1" y="859.4751">DNS (ACME)</text></g><!--entity ca--><g class="entity" data-entity="ca" data-source-line="59" data-uid="ent0018" id="entity_ca"><ellipse cx="1100" cy="713.19" fill="#F1F1F1" rx="12" ry="12" style="stroke:#181818;stroke-width:0.5;"/><line style="stroke:#181818;stroke-width:0.5;" x1="1088" x2="1112" y1="727.19" y2="727.19"/><text fill="#000000" font-family="sans-serif" font-size="14" lengthAdjust="spacing" textLength="19.3525" x="1090.3237" y="742.1851">CA</text></g><!--reverse link intranet to extranet_cloud--><!--link est_client to netpol--><g class="link" data-entity-1="est_client" data-entity-2="netpol" data-source-line="63" data-uid="lnk21" id="link_est_client_netpol"><path d="M322.13,98.75 C334.38,114.09 350.46,134.62 364,153.3 C385.82,183.38 406.5299,214.9465 418.6899,233.8165" fill="none" id="est_client-to-netpol" style="stroke:#181818;stroke-width:1;"/><polygon fill="#181818" points="421.94,238.86,420.4272,229.128,419.2316,234.6571,413.7025,233.4615,421.94,238.86" style="stroke:#181818;stroke-width:1;"/><text fill="#000000" font-family="sans-serif" font-size="13" lengthAdjust="spacing" textLength="176.8394" x="359" y="141.3669">1. HTTP /.well-known/est/...</text></g><!--link netpol to cert_estuary--><g class="link" data-entity-1="netpol" data-entity-2="cert_estuary" data-source-line="64" data-uid="lnk22" id="link_netpol_cert_estuary"><path d="M412.35,265.9 C390.7,281.19 358.4716,303.9295 331.7716,322.7795" fill="none" id="netpol-to-cert_estuary" style="stroke:#181818;stroke-width:1;stroke-dasharray:7.0,7.0;"/><polygon fill="#181818" points="326.87,326.24,336.5293,324.317,330.9546,323.3563,331.9154,317.7816,326.87,326.24" style="stroke:#181818;stroke-width:1;"/></g><!--link cert_estuary to eac--><g class="link" data-entity-1="cert_estuary" data-entity-2="eac" data-source-line="65" data-uid="lnk23" id="link_cert_estuary_eac"><path d="M226.2877,364.6066 C203.4177,372.2266 185.38,382.74 171,402.89 C156.15,423.7 156.8342,448.635 159.9742,468.305" fill="none" id="cert_estuary-eac" style="stroke:#181818;stroke-width:1;"/><polygon fill="#181818" points="231.98,362.71,222.1771,361.76,227.2364,364.2905,224.7059,369.3498,231.98,362.71" style="stroke:#181818;stroke-width:1;"/><polygon fill="#181818" points="160.92,474.23,163.4512,464.712,160.1318,469.2925,155.5513,465.9731,160.92,474.23" style="stroke:#181818;stroke-width:1;"/><text fill="#000000" font-family="sans-serif" font-size="13" lengthAdjust="spacing" textLength="79.2759" x="172" y="415.9569">2. Reconcile</text></g><!--link cert_estuary to csr--><g class="link" data-entity-1="cert_estuary" data-entity-2="csr" data-source-line="66" data-uid="lnk24" id="link_cert_estuary_csr"><path d="M287.71,373.36 C284.5,387.79 283.18,406.27 292,419.89 C309.02,446.19 332.3758,461.0032 361.2058,471.8732" fill="none" id="cert_estuary-to-csr" style="stroke:#181818;stroke-width:1;"/><polygon fill="#181818" points="366.82,473.99,359.8099,467.072,362.1415,472.226,356.9875,474.5577,366.82,473.99" style="stroke:#181818;stroke-width:1;"/><text fill="#000000" font-family="sans-serif" font-size="13" lengthAdjust="spacing" textLength="118.7837" x="293" y="415.9569">3. Create/Approve</text></g><!--link csr to cert_estuary--><g class="link" data-entity-1="csr" data-entity-2="cert_estuary" data-source-line="74" data-uid="lnk30" id="link_csr_cert_estuary"><path d="M451.18,474.13 C446.23,454.09 435.79,422.65 416,402.89 C400.06,386.97 384.0615,377.7561 363.5315,369.7661" fill="none" id="csr-to-cert_estuary" style="stroke:#181818;stroke-width:1;"/><polygon fill="#181818" points="357.94,367.59,364.8764,374.5818,362.5996,369.4034,367.7779,367.1265,357.94,367.59" style="stroke:#181818;stroke-width:1;"/><text fill="#000000" font-family="sans-serif" font-size="13" lengthAdjust="spacing" textLength="57.478" x="431" y="415.9569">8. Ready</text></g><!--link eac to csr--><g class="link" data-entity-1="eac" data-entity-2="csr" data-source-line="67" data-uid="lnk25" id="link_eac_csr"><path d="M251.62,494.04 C281.99,494.04 310.47,494.04 342.3,494.04" fill="none" id="eac-to-csr" style="stroke:#181818;stroke-width:1;stroke-dasharray:7.0,7.0;"/><polygon fill="#181818" points="348.3,494.04,339.3,490.04,343.3,494.04,339.3,498.04,348.3,494.04" style="stroke:#181818;stroke-width:1;"/><text fill="#000000" font-family="sans-serif" font-size="13" lengthAdjust="spacing" textLength="61.7754" x="269.57" y="487.1069">ownerRef</text></g><!--link cert_manager to csr--><g class="link" data-entity-1="cert_manager" data-entity-2="csr" data-source-line="69" data-uid="lnk26" id="link_cert_manager_csr"><path d="M779.77,505.22 C754.81,508.8 726.31,512.28 700.22,514.04 C654.72,517.1 610.4975,514.7536 567.4375,510.2536" fill="none" id="cert_manager-to-csr" style="stroke:#181818;stroke-width:1;"/><polygon fill="#181818" points="561.47,509.63,570.0055,514.5438,566.4429,510.1497,570.837,506.5871,561.47,509.63" style="stroke:#181818;stroke-width:1;"/><text fill="#000000" font-family="sans-serif" font-size="13" lengthAdjust="spacing" textLength="57.8398" x="642.22" y="510.1069">4. Watch</text></g><!--link cert_manager to csr--><g class="link" data-entity-1="cert_manager" data-entity-2="csr" data-source-line="72" data-uid="lnk29" id="link_cert_manager_csr"><path d="M780,494.04 C719.88,494.04 637.17,494.04 567.61,494.04" fill="none" id="cert_manager-to-csr-1" style="stroke:#181818;stroke-width:1;"/><polygon fill="#181818" points="561.61,494.04,570.61,498.04,566.61,494.04,570.61,490.04,561.61,494.04" style="stroke:#181818;stroke-width:1;"/><text fill="#000000" font-family="sans-serif" font-size="13" lengthAdjust="spacing" textLength="183.4854" x="579.22" y="487.1069">7. Update .status.Certificate</text></g><!--link cert_manager to issuer--><g class="link" data-entity-1="cert_manager" data-entity-2="issuer" data-source-line="70" data-uid="lnk27" id="link_cert_manager_issuer"><path d="M916.12,494.04 C954.86,494.04 995.85,494.04 1027.63,494.04" fill="none" id="cert_manager-to-issuer" style="stroke:#181818;stroke-width:1;"/><polygon fill="#181818" points="1033.63,494.04,1024.63,490.04,1028.63,494.04,1024.63,498.04,1033.63,494.04" style="stroke:#181818;stroke-width:1;"/><text fill="#000000" font-family="sans-serif" font-size="13" lengthAdjust="spacing" textLength="82.8687" x="933.89" y="487.1069">5. Reference</text></g><!--link cert_manager to extranet_cloud--><g class="link" data-entity-1="cert_manager" data-entity-2="extranet_cloud" data-source-line="71" data-uid="lnk28" id="link_cert_manager_extranet_cloud"><path d="M880.8508,521.1617 C913.2608,546.0217 964.24,581.99 1018,605.19 C1074.71,629.66 1112.55,591.51 1153,638.19 C1155.9088,641.5463 1158.2303,645.2942 1160.0643,649.2898 C1160.5227,650.2887 1160.9508,651.3031 1161.3498,652.3307 C1161.5494,652.8445 1159.7283,647.7095 1159.9136,648.2296" fill="none" id="cert_manager-extranet_cloud" style="stroke:#181818;stroke-width:1;"/><polygon fill="#181818" points="876.09,517.51,880.7967,526.1614,880.0573,520.5531,885.6656,519.8138,876.09,517.51" style="stroke:#181818;stroke-width:1;"/><polygon fill="#181818" points="1161.927,653.8818,1162.675,644.0613,1160.2492,649.1717,1155.1389,646.7458,1161.927,653.8818" style="stroke:#181818;stroke-width:1;"/><text fill="#000000" font-family="sans-serif" font-size="13" lengthAdjust="spacing" textLength="53.936" x="1145" y="626.2569">6. ACME</text></g><!--reverse link est_client to cert_estuary--><g class="link" data-entity-1="est_client" data-entity-2="cert_estuary" data-source-line="75" data-uid="lnk32" id="link_est_client_cert_estuary"><path d="M285.0516,103.9328 C276.4416,118.9228 269.47,133.89 265,153.3 C253.8,201.93 256.4,216.43 265,265.59 C268.73,286.91 277.45,309.97 284.53,326.38" fill="none" id="est_client-backto-cert_estuary" style="stroke:#181818;stroke-width:1;"/><polygon fill="#181818" points="288.04,98.73,280.0888,104.542,285.5497,103.0657,287.0259,108.5265,288.04,98.73" style="stroke:#181818;stroke-width:1;"/><text fill="#000000" font-family="sans-serif" font-size="13" lengthAdjust="spacing" textLength="84.062" x="266" y="257.0069">9. Certificate</text></g><!--link main_dns to sub_dns--><g class="link" data-entity-1="main_dns" data-entity-2="sub_dns" data-source-line="77" data-uid="lnk33" id="link_main_dns_sub_dns"><path d="M1018.26,744.39 C1021.52,766.46 1025.6339,794.2843 1028.8839,816.3043" fill="none" id="main_dns-to-sub_dns" style="stroke:#181818;stroke-width:1;stroke-dasharray:7.0,7.0;"/><polygon fill="#181818" points="1029.76,822.24,1032.403,812.7524,1029.0299,817.2936,1024.4888,813.9205,1029.76,822.24" style="stroke:#181818;stroke-width:1;"/><text fill="#000000" font-family="sans-serif" font-size="13" lengthAdjust="spacing" textLength="120.2373" x="1027" y="788.5469">CNAME delegation</text></g><!--link issuer to dns_token--><g class="link" data-entity-1="issuer" data-entity-2="dns_token" data-source-line="78" data-uid="lnk34" id="link_issuer_dns_token"><path d="M1106.36,494.04 C1117.68,494.04 1122.99,494.04 1134.3,494.04" fill="none" id="issuer-to-dns_token" style="stroke:#181818;stroke-width:1;stroke-dasharray:7.0,7.0;"/><polygon fill="#181818" points="1140.3,494.04,1131.3,490.04,1135.3,494.04,1131.3,498.04,1140.3,494.04" style="stroke:#181818;stroke-width:1;"/></g><!--SRC=[dLJBRjim4BphAmZrqXv4v-7OiL44a1KLpQ51aRZeeIWCXbexX6LI9QcaQP6FAD1xVx6Vq1Kbov9L9K1qiRcSdTqT3cdMGcPCimrPYXJ8Ju_WDsDylT8gbqcaKgN9gtWsYiCJxz4pDPnfAvQCsxwKqN1sVZvifInLce3kIpWTn-_2KIj1ggItfRbcqY0Cf6tbVCiXhvEKneBzCt0bhLRfCoDqc0uEnYVHKLiDRbNVPCrEkrpnP3W9srsbAa_-Dy7XS38-dkrDiCcKHEONrUxE8PM5br3LudeQk6LoXLxoBr1T9i7wX1aYgaN5ZYp2FX2VfwBeFe4xmS41mTX56VKSia6uFZKEWhyLJV5bs2XRuJRBie23jW5Iv4m_E6mHM5I1XMpc5L_f5X_xkbTw7MGg5RpCmn2kMk2TsFwJPLf9zJtn8oZ-2iuiN8kL579r1LZVbFfmetloukjvcDjRfSKFI2AdJ2aKutN6unDgR9Z4WDwrMGMwQkmFs9VvN5bXJ0wwFAlgVxVORi0B1scWMpZtBlbMhK6Iltz-_tAuH9g52-srWWPyzCeBvCVV6_Q3Qh5etgw4MNR33DAVNruxs8O9kK3oxZPv7KOVuZSEPVAR6hGrSXIMCh7Y4knL2xxSYYG1-JNFWhFw9dWxfvCWKVSIzqhNaIavfEJzVFwH3EWzf6cmbhW_m8G1fTIhK9IUjNtNN92tMqxq2H8UKN85-E1nbBCDH0YQ3o77b4GQq9w3CCkqkWElIANRRMG3VGLBpsjwOPS-fEGpi_osirqUAY9EYXwMW4y8XpPgrsnRkIaPKL88trDpJCcd3Cy923MMsTpGnYt3Has9ROux9QT56opPqojmXzCuaocPe21DkgqxdFAL2H0MNOOVOdp2KbWnAvJqge4HLFlq7m00]--></g></svg>